<svg height="512" viewBox="0 0 58 58" width="512" xmlns="http://www.w3.org/2000/svg"><g id="Page-1" fill="none" fill-rule="evenodd"><g id="045---Cash" fill-rule="nonzero"><rect id="Rectangle-path" fill="#f29c1f" height="6" rx="3" width="14" x="44" y="52"/><rect id="Rectangle-path" fill="#f0c419" height="6" rx="3" width="14" x="42" y="46"/><rect id="Rectangle-path" fill="#f29c1f" height="6" rx="3" width="14" x="44" y="40"/><rect id="Rectangle-path" fill="#f0c419" height="6" rx="3" width="14" x="42" y="34"/><rect id="Rectangle-path" fill="#f29c1f" height="6" rx="3" width="14" x="44" y="28"/><rect id="Rectangle-path" fill="#f0c419" height="6" rx="3" width="14" x="42" y="22"/><rect id="Rectangle-path" fill="#f0c419" height="6" rx="3" width="14" x="23" y="52"/><rect id="Rectangle-path" fill="#f29c1f" height="6" rx="3" width="14" x="21" y="46"/><rect id="Rectangle-path" fill="#f0c419" height="6" rx="3" width="14" x="23" y="40"/><rect id="Rectangle-path" fill="#f29c1f" height="6" rx="3" width="14" x="21" y="34"/><rect id="Rectangle-path" fill="#f29c1f" height="6" rx="3" width="14" x="2" y="52"/><rect id="Rectangle-path" fill="#f0c419" height="6" rx="3" width="14" y="46"/><g fill="#804169"><path id="Shape" d="m8.131 35h-.065c-.55077746-.0353279-.9687983-.5101888-.934-1.061.29416369-5.3769232 1.26137474-10.6957441 2.879-15.832.1736936-.5246705.7398295-.8091935 1.2645-.6355.5246705.1736936.8091935.7398295.6355 1.2645-1.5628136 4.9736528-2.49707245 10.1233306-2.781 15.329-.0342859.526365-.47151991.935588-.999.935z"/><path id="Shape" d="m8 42c-.54115495.0002276-.98430655-.4300726-1-.971-.03-1.022-.03-2.046-.02-3.039.00548403-.5483755.45159704-.9900274 1-.99h.01c.26522069.0026389.51852878.1105351.70419264.2999498.18566386.1894146.28847283.4448298.28580736.7100502-.01.968-.01 1.964.02 2.961.00780381.2652474-.09013907.5227205-.27226038.7157203-.1821213.1929998-.43348572.305699-.69873962.3132797z"/><path id="Shape" d="m29 30c-.2873748.0000919-.5616159-.120342-.756-.332-.1932214-.2099298-.2884264-.4919108-.262-.776-1.396-12.457-5.636-19.892-8.952-19.892-1.7 0-3.641 1.949-5.335 5.347-.1595191.3197527-.4775068.530114-.8341803.5518427-.3566735.0217288-.6978456-.148476-.895-.4465-.1971545-.2980239-.2203388-.67859-.0608197-.9983427 2.106-4.223 4.569-6.454 7.125-6.454 4.17 0 7.97 6.134 9.959 15.525 1.991-9.391 5.792-15.525 9.962-15.525.5522847 0 1 .44771525 1 1s-.4477153 1-1 1c-3.316 0-7.557 7.436-8.957 19.892.030671.2823296-.0601465.5643842-.2497887.7757762-.1896423.2113919-.4602206.3321809-.7442113.3322238z"/></g><path id="Shape" d="m41.274.566 15.7 6.977c.1806782.08020099.2971429.25932147.2971429.457s-.1164647.37679901-.2971429.457l-15.7 6.977c-.1930421.0864244-.4195813.042036-.5657325-.1108504-.1461513-.1528864-.1802954-.3811942-.0852675-.5701496l3.265-6.529c.0706443-.14097851.0706443-.30702149 0-.448l-3.265-6.529c-.0950279-.18895539-.0608838-.41726324.0852675-.57014961.1461512-.15288637.3726904-.19727475.5657325-.11085039z" fill="#cc66a1"/></g></g></svg>