<svg xmlns="http://www.w3.org/2000/svg" viewBox="0 0 5535.96 1606.4"><g id="Слой_1" data-name="Слой 1"><path d="M761.12,1490.91A539.69,539.69,0,0,0,707,1344.29a617,617,0,0,0-65.73-97.48q-7.17,6.69-14.68,13.23a610.14,610.14,0,0,1-85.46,62.74c-38.67,23.36-76.71,39.75-111,48.3h0c-52.7,13.14-96.56,7.71-120.35-19.51a68.69,68.69,0,0,1-6.27-8.45q-1.26-2-2.38-4.1c-20.78-38.89-6.23-100.87,35-166.4-44.63,40-74.63,90.6-84.08,144.44,0,0,0,0,0,.06v0h0q-.93,8.64-1.15,17.11c-.93,34.27,6.88,66.31,24.28,93.25,0,0,0,0,0,.06v0a94.15,94.15,0,0,0,17.22,21.71.13.13,0,0,1,.06,0l.12.12c19.36,20,44.06,33.76,72.12,41.42l.06,0c26.5,9.44,57,16.06,89.76,18.79h0c.61.06,1.24.12,1.85.16,4.42.35,8.81.63,13.17.81h.07c33,3.45,62.55,15.63,85.71,37.26A134.64,134.64,0,0,1,580,1579c25.88,44.72,27.81,105.15,8,167.74a352.47,352.47,0,0,1-23.81,56.8.4.4,0,0,1-.08.16c-67,138.86-201.42,287.06-382.55,416.73,343.11-87.5,590.35-334.33,590.35-625.14A510.15,510.15,0,0,0,761.12,1490.91Z" transform="translate(-181.55 -614)" fill="#007bc0"/><path d="M753.63,1503a539.24,539.24,0,0,0-54.15-146.62,596.27,596.27,0,0,0-31.3-51.42q14.66,24.08,26.86,49.1a539.18,539.18,0,0,1,47.82,148.81q2,12.15,3.42,24.43,2.21,12.33,3.84,24.84c16.18,125.09-14.83,247.93-82,357.62,61.51-90.58,96.26-193.4,96.26-302.42A510.12,510.12,0,0,0,753.63,1503Z" transform="translate(-181.55 -614)" fill="#fff"/><circle cx="345.67" cy="516.88" r="114.11" fill="#f69917" stroke="#000" stroke-miterlimit="10"/><path d="M787.06,1688.63q-13.17-.42-25.83-1.28c-67.17-4.47-123.42-17.43-162.52-37.89-32.29-16.88-52.89-38.88-58.28-65.4-2.91-14.32-1.23-29.16,4.59-44.21a139.87,139.87,0,0,0-48.84-24.72,166.65,166.65,0,0,0-28.65-5.47h-.07c-4.93-.53-9.94-.84-15-1h0c-11.87-1-23.45-2.48-34.66-4.46-1.08,2.28-2.11,4.58-3.1,6.88-.56,1.28-1.09,2.58-1.61,3.86a181.42,181.42,0,0,0-13.55,68.37c0,86.5,63.29,164.14,163.62,217.18,40.57,21.46,87.2,38.89,138.16,51.25a732,732,0,0,0,85.85,15.44c-25.25,129.19-104.54,245.66-220.63,336.85C725.18,2126.32,848,2009.9,911.78,1872.34c28.25-60.92,44.94-126,48.06-193.67C898.26,1687.21,839.78,1690.38,787.06,1688.63Z" transform="translate(-181.55 -614)" fill="#f69917" stroke="#000" stroke-miterlimit="10"/><path d="M896.5,930.05c-19.85,71.77-89.45,170.28-190.17,261.7q-7.49,6.81-15.23,13.57-24.89,21.72-50,41a628.13,628.13,0,0,1,52.1,73.19q9.43,15.52,17.82,31.44,18.13-20.64,35.9-43.2,5-6.39,10-12.91c9.37-12.28,18.34-24.62,26.89-36.91C877.22,1123.76,921.79,992,896.5,930.05Z" transform="translate(-181.55 -614)" fill="#f69917" stroke="#000" stroke-miterlimit="10"/><path d="M1025,620.41h0a5.65,5.65,0,0,0-2.43-1.28h0a45.78,45.78,0,0,0-20.35-4.82c-.72,0-1.44,0-2.15.06a45.49,45.49,0,0,0-16,3.74c-11.08,4.78-20.58,13.83-27.29,25.58a78.53,78.53,0,0,0-7.43,18,203.61,203.61,0,0,0-7,39.1,1.7,1.7,0,0,0-.19-.19c-.15,1.51-.29,3-.41,4.55q-.62,7.49-.81,14.72h0c-.15,5.74-.1,11.33.13,16.74,0,1.15.11,2.29.18,3.43h0c0,.34,0,.69,0,1a41.5,41.5,0,0,1-2.57,15.35l0,0a14.44,14.44,0,0,1-1.3,2.46l0,0a49,49,0,0,1-12.6,14.55,49.91,49.91,0,0,1-8.8,5.48V626.44h0c-.36-4.12-2.81-7.31-5.78-7.31H894.6c-3,0-5.43,3.19-5.78,7.31h0V780.29a49.42,49.42,0,0,1-24.94-21.58s0,0,0,0a15.39,15.39,0,0,1-1.34-2.54h0c-1.58-3.73-2.57-9.21-2.57-15.32,0-.35,0-.7,0-1h0q.11-1.71.18-3.45c.23-5.4.28-11,.13-16.73h0c-.13-4.81-.4-9.73-.81-14.71-.1-1.34-.23-2.66-.35-4l-.19.18A210.14,210.14,0,0,0,852,662s0,0,0,0a78.55,78.55,0,0,0-7.09-17.74c-6.73-12.19-16.43-21.57-27.79-26.48a45.65,45.65,0,0,0-16-3.74c-.72,0-1.44,0-2.16,0a45.83,45.83,0,0,0-20.34,4.81h0a5.69,5.69,0,0,0-2.44,1.28h0a7.05,7.05,0,0,0-2.29,5.3,6.64,6.64,0,0,0,4.62,6.57h0a5.2,5.2,0,0,0,1.37.18,2.48,2.48,0,0,0,.39,0,30.62,30.62,0,0,1,9.31,2.7,29.73,29.73,0,0,1,17.11,26.81h0a29.59,29.59,0,0,1-.35,4.54,248.38,248.38,0,0,0,.39,36.66A253.89,253.89,0,0,0,810.64,731v.06c.26,1.29.52,2.57.79,3.83v0A87.26,87.26,0,0,0,817,751.29a90.6,90.6,0,0,0,32.37,38A92.82,92.82,0,0,0,888.78,804v72.28h27.15V803.71a93.18,93.18,0,0,0,23.47-6.92A91.71,91.71,0,0,0,985.13,752c.27-.57.53-1.15.77-1.73h0a228.75,228.75,0,0,0,7.31-35.6h0c.47-3.76.88-7.59,1.2-11.49a248.24,248.24,0,0,0,.39-36.65c-.1-1.53-.22-3-.35-4.55h0a30,30,0,0,1,26.42-29.51h.39a5.33,5.33,0,0,0,1.38-.18h0a6.62,6.62,0,0,0,4.62-6.56A7.09,7.09,0,0,0,1025,620.41Z" transform="translate(-181.55 -614)" fill="#007bc0"/><path d="M621,1149.74a133.88,133.88,0,0,1-5.84,39.27,114.82,114.82,0,0,0,13.09-53.77c0-57.46-40.8-104-91.13-104a81,81,0,0,0-9.65.58C580,1037.68,621,1088.24,621,1149.74Z" transform="translate(-181.55 -614)" fill="#fff"/><path d="M820.62,1180.72c54.78-95.56,83.81-184,75.32-234q-3.32,9.55-7.65,19.62C889.32,1019.78,865.07,1096,820.62,1180.72Z" transform="translate(-181.55 -614)" fill="#fff"/><path d="M773.19,1716.15l3.28.73c47.54,1.36,100.23-1.2,155.71-8.07-.07,1.35-.16,2.69-.24,4l5.71-.93a370.09,370.09,0,0,1-19.47,118.6c18.9-42.53,30.11-87.32,32.5-133.62-55.76,6.9-108.71,9.46-156.44,8q-11.93-.35-23.39-1a620.78,620.78,0,0,1-65.37-7.16q21.18,7.53,45.13,13.86Q761.62,1713.51,773.19,1716.15Z" transform="translate(-181.55 -614)" fill="#fff" stroke="#000" stroke-miterlimit="10"/></g><g id="белый"><text transform="translate(975.28 621.7)" font-size="500" fill="#fff" font-family="Montserrat-Regular, Montserrat">Инна <tspan x="1509.48" y="0" letter-spacing="-0.02em">С</tspan><tspan x="1855.97" y="0" letter-spacing="-0.02em">о</tspan><tspan x="2163.97" y="0">тни</tspan><tspan x="3081.96" y="0" letter-spacing="-0.02em">к</tspan><tspan x="3362.95" y="0">ова</tspan></text><text transform="translate(1012.41 1125.89)" font-size="275" fill="#fff" font-family="Montserrat-Regular, Montserrat">Э<tspan x="194.15" y="0" letter-spacing="-0.02em">к</tspan><tspan x="348.7" y="0" letter-spacing="-0.01em">с</tspan><tspan x="500.77" y="0">тренная пси</tspan><tspan x="2289.07" y="0" letter-spacing="-0.02em">х</tspan><tspan x="2428.49" y="0" letter-spacing="0em">о</tspan><tspan x="2602.57" y="0">логичес</tspan><tspan x="3760.57" y="0" letter-spacing="-0.01em">к</tspan><tspan x="3917.6" y="0">ая </tspan><tspan x="0" y="330">помощь</tspan></text></g></svg>