<?xml version="1.0" encoding="UTF-8" standalone="no"?><!DOCTYPE svg PUBLIC "-//W3C//DTD SVG 1.1//EN" "http://www.w3.org/Graphics/SVG/1.1/DTD/svg11.dtd"><svg width="100%" height="100%" viewBox="0 0 20719 6888" version="1.1" xmlns="http://www.w3.org/2000/svg" xmlns:xlink="http://www.w3.org/1999/xlink" xml:space="preserve" xmlns:serif="http://www.serif.com/" style="fill-rule:evenodd;clip-rule:evenodd;stroke-miterlimit:10;"><rect id="Монтажная-область1" serif:id="Монтажная область1" x="0" y="0" width="20718.8" height="6887.27" style="fill:none;"/><g id="Слой_1"><path d="M2590.16,3624.19c-42.473,-198.961 -115.613,-390.315 -215.712,-571.229c-73.276,-132.522 -161.071,-259.472 -261.848,-379.742c-19.043,17.339 -38.583,34.502 -58.485,51.532c-111.588,95.322 -226.704,177.242 -340.462,244.433c-154.061,90.987 -305.588,154.86 -442.144,188.168l-0.045,0c-209.967,51.178 -384.698,30.034 -479.46,-76.037c-9.227,-10.351 -17.55,-21.32 -24.968,-32.91c-3.347,-5.175 -6.513,-10.527 -9.498,-15.968c-82.775,-151.499 -24.833,-392.968 139.405,-648.282c-177.807,155.922 -297.31,352.981 -334.989,562.735c0,0.089 -0.045,0.133 -0.045,0.221l0,0.133c-2.488,22.426 -4.026,44.676 -4.614,66.659c-3.709,133.496 27.411,258.323 96.752,363.288c0.045,0.089 0.09,0.133 0.135,0.221c0,0.045 0.046,0.045 0.046,0.089c16.735,29.282 39.94,57.636 68.617,84.574c0.09,0.044 0.135,0.088 0.226,0.177c0.181,0.177 0.316,0.309 0.497,0.486c77.121,77.895 175.501,131.506 287.314,161.363c0.091,0.045 0.136,0.045 0.227,0.089c105.571,36.758 227.11,62.546 357.604,73.206c0.045,0.044 0.091,0.044 0.136,0c2.442,0.221 4.93,0.442 7.373,0.619c17.595,1.371 35.1,2.433 52.469,3.141c0.09,0.044 0.181,0.044 0.271,0.044c131.445,13.447 249.184,60.909 341.457,145.173c39.081,35.697 71.738,76.259 98.154,120.89c103.129,174.19 110.818,409.644 31.888,653.458c-23.837,73.516 -55.499,147.739 -94.851,221.299c-0.046,0.221 -0.181,0.398 -0.317,0.619c-267.095,540.973 -802.417,1118.35 -1524,1623.54c1366.87,-340.906 2351.84,-1302.49 2351.84,-2435.48c0,-138.317 -14.7,-274.113 -42.97,-406.503Z" style="fill:#007bc0;fill-rule:nonzero;"/><path d="M2560.36,3671.26c-42.473,-198.961 -115.613,-390.314 -215.712,-571.228c-37.769,-68.297 -79.427,-135.133 -124.705,-200.333c38.945,62.546 74.678,126.33 107.019,191.309c92.093,184.939 156.775,379.168 190.518,579.721c5.292,31.583 9.815,63.298 13.569,95.146c5.881,32.025 11.037,64.271 15.334,96.782c64.456,487.318 -59.073,965.878 -326.53,1393.21c245.067,-352.848 383.477,-753.469 383.477,-1178.15c0,-138.273 -14.7,-274.069 -42.97,-406.459Z" style="fill:#fff;fill-rule:nonzero;"/><ellipse cx="1658.38" cy="2221.56" rx="454.582" ry="444.544" style="fill:#f69917;stroke:#000;stroke-width:4.47px;"/><path d="M2693.52,4394.47c-34.964,-1.106 -69.296,-2.787 -102.903,-4.999c-267.593,-17.383 -491.672,-67.898 -647.452,-147.606c-128.64,-65.775 -210.691,-151.455 -232.176,-254.784c-11.579,-55.778 -4.885,-113.591 18.274,-172.244c-57.4,-44.454 -123.031,-76.347 -194.543,-96.296c-36.593,-10.218 -74.769,-17.339 -114.166,-21.32c-0.09,0 -0.181,0 -0.271,-0.044c-19.631,-2.035 -39.578,-3.274 -59.797,-3.76c-0.045,0.044 -0.091,0.044 -0.136,0c-47.312,-3.848 -93.449,-9.687 -138.093,-17.384c-4.297,8.891 -8.413,17.826 -12.349,26.805c-2.216,4.999 -4.342,10.041 -6.423,15.04c-35.281,85.414 -53.961,174.588 -53.961,266.372c0,336.969 252.123,639.436 651.839,846.094c161.614,83.601 347.382,151.499 550.383,199.669c109.372,26.009 223.718,46.268 342,60.157c-100.596,503.286 -416.451,957.031 -878.949,1312.31c632.208,-302.821 1121.39,-756.389 1375.6,-1292.32c112.537,-237.312 179.029,-490.812 191.467,-754.487c-245.338,33.264 -478.329,45.605 -688.341,38.793Z" style="fill:#f69917;fill-rule:nonzero;stroke:#000;stroke-width:4.47px;"/><path d="M3129.51,1439.16c-79.066,279.599 -356.338,663.366 -757.592,1019.53c-19.902,17.693 -40.166,35.298 -60.701,52.858c-66.084,56.442 -132.621,109.743 -199.022,159.727c76.94,91.341 146.326,186.531 207.57,285.127c25.059,40.297 48.715,81.124 70.969,122.482c48.173,-53.611 95.938,-109.787 143.024,-168.307c13.344,-16.588 26.597,-33.352 39.804,-50.294c37.317,-47.86 73.05,-95.897 107.11,-143.802c372.034,-522.66 549.569,-1035.99 448.838,-1277.32Z" style="fill:#f69917;fill-rule:nonzero;stroke:#000;stroke-width:4.47px;"/><path d="M3641.31,232.873c-2.804,-2.433 -6.106,-4.158 -9.679,-4.998l-0.045,0c-25.104,-12.12 -52.47,-18.755 -81.056,-18.755c-2.895,0 -5.745,0.088 -8.594,0.221c-22.209,1.017 -43.604,6.104 -63.687,14.597c-44.101,18.666 -81.961,53.876 -108.693,99.657c-12.439,21.321 -22.48,44.897 -29.582,70.199c-12.8,42.464 -22.706,94.791 -27.772,152.295c-0.226,-0.266 -0.498,-0.487 -0.769,-0.752c-0.588,5.883 -1.131,11.766 -1.674,17.737c-1.628,19.419 -2.713,38.572 -3.211,57.327l0,0.044c-0.588,22.338 -0.407,44.145 0.543,65.2c0.181,4.511 0.407,8.935 0.678,13.358l0,0.044c0.045,1.372 0.045,2.699 0.045,4.07c0,23.842 -3.98,45.25 -10.267,59.759c-0.045,0.044 -0.045,0.133 -0.091,0.177c-1.583,3.671 -3.347,6.9 -5.201,9.598c-0.046,0.045 -0.091,0.089 -0.091,0.177c-12.71,21.94 -29.808,41.226 -50.207,56.707c-10.811,8.228 -22.571,15.394 -35.055,21.321l0,-594.539l-0.181,0c-1.402,-16.057 -11.173,-28.442 -23.023,-28.442l-61.787,0c-11.851,0 -21.621,12.429 -23.023,28.442l-0.181,0l0,599.405c-17.822,-6.857 -34.331,-16.101 -49.168,-27.381c-20.399,-15.482 -37.497,-34.767 -50.207,-56.707c-0.045,-0.044 -0.045,-0.088 -0.091,-0.133c-1.899,-2.786 -3.709,-6.104 -5.337,-9.908c-6.242,-14.553 -10.222,-35.917 -10.222,-59.715c0,-1.371 0,-2.742 0.045,-4.069c0.271,-4.424 0.497,-8.935 0.678,-13.403c0.95,-21.055 1.131,-42.862 0.543,-65.155l0,-0.045c-0.498,-18.755 -1.583,-37.908 -3.211,-57.326c-0.453,-5.175 -0.905,-10.351 -1.448,-15.482c-0.226,0.222 -0.497,0.487 -0.724,0.708c-5.02,-56.928 -14.7,-108.991 -27.365,-152.03c0,-0.044 0,-0.044 -0.045,-0.088c-6.785,-24.815 -16.329,-48.037 -28.27,-69.137c-26.823,-47.462 -65.451,-84.043 -110.683,-103.152c-20.083,-8.492 -41.478,-13.535 -63.687,-14.597c-2.849,-0.132 -5.744,-0.221 -8.594,-0.221c-28.587,0 -55.952,6.635 -81.056,18.755l-0.045,0c-3.619,0.841 -6.92,2.61 -9.725,4.998c0,0 -0.045,0 -0.045,0.045c-5.564,4.821 -9.137,12.252 -9.137,20.657c0,12.429 7.87,22.868 18.409,25.611l0.046,0c1.764,0.442 3.618,0.707 5.473,0.707c0.497,0 1.04,0 1.538,-0.044c13.117,1.593 25.601,5.22 37.09,10.528c40.347,18.71 68.165,58.476 68.165,104.434c0,6.016 -0.498,11.943 -1.403,17.694c-3.03,44.543 -2.668,92.713 1.538,142.829c3.212,38.262 8.504,75.02 15.515,109.61c0,0.088 0.045,0.177 0.045,0.221c0.995,5.043 2.081,9.997 3.166,14.907c0,0.044 0.046,0.088 0.046,0.132c5.201,22.117 12.619,43.482 22.028,63.785c27.772,60.069 72.733,111.246 128.956,147.916c15.922,10.395 32.748,19.595 50.344,27.513c33.155,14.906 69.024,25.213 106.702,30.079l0,281.588l108.195,0l0,-282.871c32.839,-5.043 64.184,-14.199 93.495,-26.983c17.505,-7.608 34.286,-16.543 50.207,-26.584c57.355,-36.271 103.401,-87.493 131.987,-147.916c1.041,-2.211 2.081,-4.467 3.076,-6.723l0.045,-0.044c12.62,-41.801 22.616,-88.644 29.085,-138.672c1.899,-14.641 3.528,-29.592 4.794,-44.764c4.252,-50.072 4.569,-98.286 1.538,-142.829c-0.407,-5.971 -0.859,-11.854 -1.402,-17.693l0,-0.045c0,-46.002 27.863,-85.724 68.21,-104.434c11.444,-5.308 23.928,-8.935 37.045,-10.528c0.497,0.044 0.995,0.044 1.538,0.044c1.9,0 3.709,-0.221 5.473,-0.707c10.539,-2.743 18.409,-13.138 18.409,-25.567c0.227,-8.36 -3.347,-15.836 -8.956,-20.657Z" style="fill:#007bc0;fill-rule:nonzero;"/><path d="M2032.05,2295.03c0,53.61 -8.232,105.098 -23.249,153.002c33.11,-61.13 52.153,-132.788 52.153,-209.444c0,-223.909 -162.564,-405.398 -363.078,-405.398c-12.982,0 -25.782,0.796 -38.447,2.256c209.198,23.001 372.621,219.972 372.621,459.584Z" style="fill:#fff;fill-rule:nonzero;"/><path d="M2827.22,2415.74c218.245,-372.311 333.903,-716.711 300.115,-911.736c-8.821,24.771 -18.998,50.293 -30.487,76.435c4.071,208.295 -92.545,505.365 -269.628,835.301Z" style="fill:#fff;fill-rule:nonzero;"/><path d="M2638.29,4501.69c4.342,0.973 8.729,1.902 13.072,2.831c189.386,5.308 399.308,-4.689 620.312,-31.406c-0.271,5.22 -0.588,10.44 -0.95,15.659c7.599,-1.194 15.153,-2.389 22.752,-3.627c0.317,158.09 -26.506,312.818 -77.573,462.061c75.311,-165.654 119.91,-340.154 129.454,-520.537c-222.135,26.893 -433.097,36.846 -623.252,31.361c-31.663,-0.885 -62.737,-2.256 -93.178,-4.025c-93.043,-5.397 -180.295,-14.774 -260.447,-27.867c56.269,19.507 116.292,37.598 179.798,53.964c29.31,7.52 59.299,14.774 90.012,21.586Z" style="fill:#fff;fill-rule:nonzero;stroke:#000;stroke-width:4.47px;"/></g><g id="белый"><rect x="3743.78" y="1040.39" width="15646.3" height="1900.17" style="fill:none;"/><text x="4232.4px" y="3112.57px" style="font-family:'Montserrat-Regular', 'Montserrat';font-size:2083.33px;fill:#fff;">И<tspan x="5778.24px 7044.55px 8310.87px 9404.59px 9896.11px 11196.2px 12351.8px 13239.2px 14505.5px 15796.2px 16850.5px 18043.7px 19184.3px " y="3112.57px 3112.57px 3112.57px 3112.57px 3112.57px 3112.57px 3112.57px 3112.57px 3112.57px 3112.57px 3112.57px 3112.57px 3112.57px ">нна Сотникова</tspan></text><rect x="3744.36" y="3120.14" width="16374.9" height="2533.71" style="fill:none;"/><g><text x="4369.32px" y="4595.41px" style="font-family:'Montserrat-Regular', 'Montserrat';font-size:1006.51px;fill:#fff;">Э<tspan x="5093.32px 5669.65px 6236.75px 6721.81px 7425.3px 8059.06px 8751.27px 9443.48px 10041.3px 10662.8px 10931.5px 11622.7px 12200px 12905.6px 13425.5px 14074.6px 14722.7px 15375px 15862.1px 16567.6px 17181.9px 17815.6px 18393px 18978.5px 19576.4px " y="4595.41px 4595.41px 4595.41px 4595.41px 4595.41px 4595.41px 4595.41px 4595.41px 4595.41px 4595.41px 4595.41px 4595.41px 4595.41px 4595.41px 4595.41px 4595.41px 4595.41px 4595.41px 4595.41px 4595.41px 4595.41px 4595.41px 4595.41px 4595.41px 4595.41px ">кстренная психологическая</tspan></text><text x="4362.21px" y="5666.92px" style="font-family:'Montserrat-Regular', 'Montserrat';font-size:1006.51px;fill:#fff;">п<tspan x="5056.45px 5711.55px 6525.27px 7180.36px 8137.26px " y="5666.92px 5666.92px 5666.92px 5666.92px 5666.92px ">омощь</tspan></text></g></g></svg>