<?xml version="1.0"?>
<svg xmlns="http://www.w3.org/2000/svg" viewBox="0 0 64 64" width="512" height="512"><path d="m16 17h32v44h-32z" fill="#b6dedc"/><path d="m23 35.53419v7.46581h4v14h10v-14h4v-7.46581a5.53419 5.53419 0 0 0 -5.53419-5.53419h-6.93162a5.53419 5.53419 0 0 0 -5.53419 5.53419z" fill="#ec322c"/><circle cx="32" cy="26" fill="#ec322c" r="4"/><path d="m16 17h32l-16-14z" fill="#344496"/><path d="m31 44h2v13h-2z"/><path d="m35.954 29.02472a4.9502 4.9502 0 0 0 1.046-3.02472 5 5 0 0 0 -10 0 4.9502 4.9502 0 0 0 1.046 3.02472 6.53887 6.53887 0 0 0 -6.046 6.50946v7.46582a.99943.99943 0 0 0 1 1h3v13a.99943.99943 0 0 0 1 1h10a.99943.99943 0 0 0 1-1v-13h3a.99943.99943 0 0 0 1-1v-7.46582a6.53887 6.53887 0 0 0 -6.046-6.50946zm-3.954-6.02472a3 3 0 1 1 -3 3 3.00328 3.00328 0 0 1 3-3zm8 19h-2v-8h-2v22h-8v-22h-2v8h-2v-6.46582a4.53951 4.53951 0 0 1 4.53418-4.53418h6.93164a4.53951 4.53951 0 0 1 4.53418 4.53418z"/><path d="m61.6377 26.22949-29-24a.99911.99911 0 0 0 -1.2754 0l-29 24 1.2754 1.541 11.3623-9.40342v42.63293a.99943.99943 0 0 0 1 1h32a.99943.99943 0 0 0 1-1v-42.63293l11.3623 9.40344zm-14.6377 33.77051h-30v-42h30zm-29.13983-44 14.13983-11.70215 14.13983 11.70215z"/></svg>
