<?xml version="1.0" encoding="iso-8859-1"?>
<!-- Generator: Adobe Illustrator 19.0.0, SVG Export Plug-In . SVG Version: 6.00 Build 0)  -->
<svg version="1.1" id="Capa_1" xmlns="http://www.w3.org/2000/svg" xmlns:xlink="http://www.w3.org/1999/xlink" x="0px" y="0px"
	 viewBox="0 0 512.001 512.001" style="enable-background:new 0 0 512.001 512.001;" xml:space="preserve">
<path style="fill:#A5C8CD;" d="M86.21,512c-12.007,0-21.74-9.733-21.74-21.74V22.065c0-12.007,9.733-21.74,21.74-21.74
	s21.74,9.733,21.74,21.74V490.26C107.95,502.266,98.217,512,86.21,512z"/>
<path style="fill:#414B82;" d="M119.065,409.364c-6.629-12.1-2.195-27.282,9.904-33.912l78.977-43.27l-42.683-39.81
	c-10.089-9.41-10.64-25.217-1.23-35.307c9.411-10.089,25.219-10.64,35.307-1.23l67.956,63.381c12.432,11.594,9.889,32-5.035,40.177
	l-109.285,59.877C140.835,425.921,125.672,421.425,119.065,409.364z"/>
<path style="fill:#53618C;" d="M215.517,128.791c0.073-13.85-11.094-25.136-24.944-25.209l-56.96-0.301
	c-13.85-0.073-25.577,11.094-25.65,24.944v166.203l54.803,75.544V487.02c0,13.797,11.184,24.981,24.981,24.981
	s24.981-11.184,24.981-24.981v-125.3c0-5.358-1.723-10.574-4.914-14.878l-38.618-52.09l45.44,0.241L215.517,128.791z"/>
<path style="fill:#BA6746;" d="M141.224,153.321l76.443,59.27c8.474,6.57,20.509,5.896,28.173-1.604
	c19.97-19.545,40.99-40.825,55.162-55.597c5.952-6.203,9.788-14.489,6.846-23.081c-3.714-10.848-15.518-16.63-26.367-12.917
	l-48.527,47.317L166.5,120.377c-9.097-6.98-22.136-5.267-29.109,3.835C130.41,133.309,132.127,146.341,141.224,153.321z"/>
<path style="fill:#78BEFF;" d="M107.962,294.426l106.673,0.568l0.88-166.203c0.073-13.85-11.094-25.136-24.944-25.209l-56.96-0.301
	c-13.85-0.073-25.577,11.094-25.65,24.944v166.202H107.962z"/>
<g>
	<circle style="fill:#BA6746;" cx="177.947" cy="41.912" r="41.912"/>
	<path style="fill:#BA6746;" d="M211.763,293.837l-69.169-45.776c-5.798-3.838-9.29-10.321-9.304-17.274l-0.19-93.901
		c-0.022-11.466,9.257-20.778,20.722-20.8c11.467-0.029,20.778,9.257,20.8,20.722l0.17,82.77l59.887,39.634
		c9.562,6.328,12.183,19.209,5.855,28.771C234.214,297.532,221.333,300.172,211.763,293.837z"/>
</g>
<path style="fill:#AFE6FF;" d="M174.738,193.02l-0.115-56.212c-0.022-11.467-9.334-20.751-20.8-20.722
	c-11.467,0.022-20.744,9.334-20.722,20.8l0.114,56.134H174.738z"/>
<path style="fill:#A5C8CD;" d="M261.626,129.321c-0.899-4.234,1.806-8.395,6.04-9.294l56.592-12.011
	c4.228-0.9,8.394,1.806,9.294,6.04c0.899,4.234-1.806,8.395-6.04,9.294l-56.592,12.011
	C266.669,136.262,262.522,133.538,261.626,129.321z"/>
<path style="fill:#C8E6EB;" d="M341.943,95.268c0.654-15.484,18.293-33.572,50.068-30.894c8.097,0,32.171,4.939,46.807-13.838
	c3.451-4.353,5.848-9.256,8.107-14.269c3.313,17.797-7.007,36.84-29.188,42.513c-14.838,3.927-26.799,0.616-35.04,0.173
	C366.308,77.866,351.917,82.293,341.943,95.268z"/>
<g>
</g>
<g>
</g>
<g>
</g>
<g>
</g>
<g>
</g>
<g>
</g>
<g>
</g>
<g>
</g>
<g>
</g>
<g>
</g>
<g>
</g>
<g>
</g>
<g>
</g>
<g>
</g>
<g>
</g>
</svg>
