<svg enable-background="new 0 0 512 512" height="512" viewBox="0 0 512 512" width="512" 
	xmlns="http://www.w3.org/2000/svg">
	<g>
		<path d="m337 145.569v24.75h-90.5v-24.75c0-10.02 3.27-19.28 8.8-26.78 8.24-11.2 21.51-18.47 36.45-18.47 24.95 0 45.25 20.29 45.25 45.25z" fill="#ff4945"/>
		<path d="m337 145.569v24.75h-81.7v-51.53c8.24-11.2 21.51-18.47 36.45-18.47 24.95 0 45.25 20.29 45.25 45.25z" fill="#ff155d"/>
		<path d="m512 307.289v124.53h-512v-271.81h374.26l66.42 99.57h23.6c26.31 0 47.72 21.4 47.72 47.71z" fill="#fef1f2"/>
		<path d="m512 307.289v124.53h-256.7v-271.81h118.96l66.42 99.57h23.6c26.31 0 47.72 21.4 47.72 47.71z" fill="#ebdfd9"/>
		<path d="m440.68 259.579h-148.93v-99.57h82.51z" fill="#4bbbf0"/>
		<path d="m217.417 258.667h-29.209v-29.208h-30v29.208h-29.208v30h29.208v29.208h30v-29.208h29.209z" fill="#ff4945"/>
		<g>
			<circle cx="123" cy="428.787" fill="#79d5fa" r="42.005"/>
			<path d="m123 485.792c-31.433 0-57.005-25.572-57.005-57.005s25.572-57.005 57.005-57.005 57.005 25.572 57.005 57.005-25.572 57.005-57.005 57.005zm0-84.01c-14.891 0-27.005 12.114-27.005 27.005s12.115 27.005 27.005 27.005 27.005-12.114 27.005-27.005-12.114-27.005-27.005-27.005z" fill="#39689e"/>
		</g>
		<g>
			<circle cx="391.382" cy="428.787" fill="#4bbbf0" r="42.005"/>
			<path d="m391.382 485.792c-31.433 0-57.005-25.572-57.005-57.005s25.573-57.005 57.005-57.005 57.005 25.572 57.005 57.005-25.573 57.005-57.005 57.005zm0-84.01c-14.891 0-27.005 12.114-27.005 27.005s12.115 27.005 27.005 27.005 27.005-12.114 27.005-27.005-12.115-27.005-27.005-27.005z" fill="#224370"/>
		</g>
		<path d="m0 214.459h61v125h-61z" fill="#79d5fa"/>
		<path d="m310.308 298.341h41.333v30h-41.333z" fill="#224370"/>
		<path d="m276.75 26.208h30v47.606h-30z" fill="#ffc239"/>
		<path d="m338.541 62.926h47.606v30h-47.606z" fill="#ffc239" transform="matrix(.736 -.677 .677 .736 42.796 265.689)"/>
		<path d="m206.156 54.123h30v47.606h-30z" fill="#ffe04a" transform="matrix(.677 -.736 .736 .677 14.148 188.064)"/>
	</g>
</svg>