<svg height="512" viewBox="0 0 40 60" width="512" xmlns="http://www.w3.org/2000/svg"><g id="Page-1" fill="none" fill-rule="evenodd"><g id="011---Pregnant-Woman" fill-rule="nonzero" transform="translate(-1)"><path id="Shape" d="m8 59c.06565166-2.8947842.74029564-5.743281 1.98-8.36-4.56-2.54-7.98-7.17-7.98-14.64-.22566764-5.3632583 2.45757859-10.4316123 7.02-13.26-.01152962.0862238-.01820681.1730272-.02.26 1.8539646.0387144 3.6307743.7494383 5 2 5.1959899 2.7152981 10.7515518 4.6782633 16.5 5.83-.1619191 2.8041869.3525292 5.6062152 1.5 8.17 4 8 6 20 6 20z" fill="#9d27b0"/><path id="Shape" d="m32 39c-1.1474708-2.5637848-1.6619191-5.3658131-1.5-8.17-5.7484482-1.1517367-11.3040101-3.1147019-16.5-5.83-1.3692257-1.2505617-3.1460354-1.9612856-5-2 .00179319-.0869728.00847038-.1737762.02-.26-.295.188-.588.393-.881.607 1.06026677.3414982 2.0355912.9050114 2.861 1.653 5.1959899 2.7152981 10.7515518 4.6782633 16.5 5.83-.1619191 2.8041869.3525292 5.6062152 1.5 8.17 4 8 6 20 6 20h3s-2-12-6-20z" fill="#6a1b9a"/><path id="Shape" d="m28 1s0 8.00002321-6 8c-2.4130589.00319312-4.8152516-.32315519-7.14-.97 2.2801619-1.59139076 4.1874608-3.65905299 5.59-6.06.3646126-.60150128 1.0166185-.96920227 1.72-.97z" fill="#ffe0b2"/><path id="Shape" d="m31.05 23.51c-3.6-1.16-7.73-.74-10.05-1.51-2.24-.75-4.43-1.93-6.47-2.33-.0182422-.0110924-.0387508-.0179287-.06-.02-5.59-1.87-6.08-8.8-1.47-10.65.6515242-.25891016 1.2747835-.58394325 1.86-.97 2.3247484.64684481 4.7269411.97319312 7.14.97 6 0 6-8 6-8h4c-2.6 10.41-1.82 18.28-.95 22.51z" fill="#9d27b0"/><path id="Shape" d="m32 1h-3c-1.9142213 7.12265045-2.2817873 14.5725112-1.078 21.849 1.0604582.1256041 2.1073873.3468382 3.128.661-.87-4.23-1.65-12.1.95-22.51z" fill="#6a1b9a"/><path id="Shape" d="m38 32c-2.5206001-.2440181-5.024843-.63468-7.5-1.17-5.7484482-1.1517367-11.3040101-3.1147019-16.5-5.83-1.3692257-1.2505617-3.1460354-1.9612856-5-2 .00179319-.0869728.00847038-.1737762.02-.26.15903282-1.1874688.9024686-2.2162638 1.98-2.74 1.08406-.5047895 2.3069704-.6281378 3.47-.35.0212492.0020713.0417578.0089076.06.02 2.04.4 4.23 1.58 6.47 2.33 2.32.77 6.45.35 10.05 1.51-.87-4.23-1.65-12.1.95-22.51h1.95c3.03 0 5.11 3.37 5.05 6 0 5 1 17-1 25z" fill="#ffe0b2"/><path id="Shape" d="m39 7c.06-2.63-2.02-6-5.05-6h-1.95c-.011.046-.02.089-.032.135 2.467.645 4.085 3.542 4.032 5.865 0 4.928.966 16.65-.922 24.647 1.822.266 2.922.353 2.922.353 2-8 1-20 1-25z" fill="#dfc49c"/><path id="Shape" d="m26 37c.002745 1.4156558-.7476218 2.725941-1.97 3.44-.6128831.3684219-1.3149084.562084-2.03.56-.1369742.0035643-.2740231-.003121-.41-.02-2.1443687-.2209617-3.7279164-2.1014901-3.5806561-4.2521774.1472604-2.1506872 1.9723517-3.7978218 4.1268251-3.7244362s3.8632554 1.8408908 3.863831 3.9966136z" fill="#ffe0b2"/><path id="Shape" d="m17 48c-6 0-5-3-7-5s-3-2-3-3c0-1.82 1.66-1.98 4.23-2-.0438743-.1711391-.0772696-.3447948-.1-.52-.0909867-.487983-.1345231-.9836277-.13-1.48 0-2 4-3 4 0 0 1.93 2.8 4.79 6.59 4.98.1359769.016879.2730258.0235643.41.02.7150916.002084 1.4171169-.1915781 2.03-.56.07 1.68-.17 7.56-7.03 7.56z" fill="#ffe0b2"/><path id="Shape" d="m38 33c.4586794-.0000121.8585409-.3120689.97-.757 1.611-6.441 1.319-15.359 1.126-21.26-.051-1.57-.1-2.932-.1-3.96-.0027913-1.97146317-.7715592-3.86469752-2.144-5.28-1.0062757-1.0919743-2.4172214-1.72223528-3.902-1.743h-11.783c-1.0517185-.00302807-2.027207.54836802-2.567 1.451-1.3272842 2.27281384-3.130522 4.2316091-5.286 5.742-.5296697.35003312-1.0939799.64458694-1.684.879-2.378945.92771801-3.89306351 3.2783527-3.754 5.828.06778232 1.8900376.89264293 3.6734518 2.289 4.949-.2090953.0745313-.4134714.1616917-.612.261-1.22678129.5920061-2.12027483 1.7067597-2.431 3.033-4.63548701 3.0542864-7.33668365 8.3099002-7.122 13.857 0 8.3 4.005 12.721 7.686 15.033-1.05199448 2.5278857-1.62375217 5.2296612-1.686 7.967 0 .5522847.44771525 1 1 1h30c.2940076-.0000863.5730803-.1295502.7630182-.3539696.1899378-.2244194.2714931-.5210526.2229818-.8110304-.082-.5-2.07-12.24-6.091-20.281-.9195939-2.0380831-1.3869693-4.2511226-1.37-6.487 2.1156161.4216253 4.2518809.7320513 6.4.93zm-16.69-30.514c.1805102-.30124508.5058128-.48572243.857-.486h4.766c-.208 1.937-1.1 6-4.933 6-1.6302158-.00079724-3.2567326-.15514559-4.858-.461 1.6315419-1.46897616 3.0361609-3.17184078 4.168-5.053zm-10.435 11.346c-.1139766-1.7053986.8957735-3.2863001 2.491-3.9.5682062-.23195859 1.1163851-.51022877 1.639-.832 2.2853535.59755389 4.6378164.9000134 7 .9 4.991 0 6.667-4.777 6.95-8h1.791c-1.5979988 6.59500816-1.9217989 13.4345204-.954 20.151-1.5477416-.2986256-3.1140385-.4914058-4.688-.577-1.2761373-.0378-2.544474-.2131477-3.783-.523-.84-.28-1.7-.633-2.524-.974-1.2998411-.5860215-2.6513152-1.0500154-4.037-1.386-2.1905774-.6376092-3.7450583-2.5818107-3.885-4.859zm25.925 44.168h-27.749c.15386199-2.0603211.62613455-4.0843464 1.4-6 3.098043 1.4406534 6.4774627 2.1750128 9.894 2.15.925474.0000474 1.8502347-.0513653 2.77-.154.355122-.0396565.6621118-.2657559.8053293-.5931288s.1009045-.7062836-.111-.994c-.2119045-.2877165-.5612073-.4405277-.9163293-.4008712-4.2718382.5279401-8.6033245-.2527875-12.422-2.239-3.41-1.9-7.471-5.828-7.471-13.769-.03710731-2.3425466.46050933-4.6627056 1.455-6.784 1.62647913.5141453 2.68212091 2.0837125 2.545 3.784.04185022 1.504343.60131274 2.9482084 1.584 4.088-1.584.197-2.584.836-2.584 2.912 0 1.084.685 1.586 1.409 2.116.67166078.4763612 1.30189951 1.0085851 1.884 1.591.43646033.4846566.7886657 1.0389914 1.042 1.64 1.016 2.07 2.151 3.653 6.665 3.653 2.1946702.1282285 4.3425241-.6698257 5.921-2.2 1.4072869-1.6239333 2.1613648-3.7126151 2.116-5.861 1.9501418-1.5075783 2.5063306-4.2137424 1.3088432-6.3682422-1.1974874-2.1544999-3.789378-3.1109376-6.0993298-2.2507234-2.3099518.8602141-3.6449278 3.2789966-3.1415134 5.6919656-.6015279-.5133432-.9945462-1.2289565-1.105-2.012.0411678-.8086453-.2584291-1.5975355-.826-2.175-.5106488-.4748309-1.1858339-.7326419-1.883-.719-1.5728988-.046917-2.9491702 1.050209-3.254 2.594-.63447307-.7607134-.99912638-1.7101482-1.037-2.7.11614404-2.4084064-1.30466567-4.6264905-3.541-5.528.95984979-1.3575185 2.15383068-2.5332138 3.526-3.472h.015c1.5878554.0433315 3.1089389.6481509 4.293 1.707.0677173.0672802.1444502.1248299.228.171 5.0361595 2.6473837 10.4130457 4.5882986 15.979 5.768-.0649006 2.6876769.4822268 5.3549229 1.6 7.8 3.173 6.336 5.089 15.369 5.7 18.554zm-21.353-15.9c-2.1659519-1.2619669-3.4834551-3.5934926-3.447-6.1 0-.434.664-.894 1.291-.894.1808635-.0114939.3594094.0456408.5.16.157862.21049.2323032.4719248.209.734 0 2.718 3.568 6 8 6 .3268112-.0016573.6526836-.0351488.973-.1-.1066652 1.3039576-.632944 2.5382567-1.5 3.518-1.2067864 1.1253294-2.8270488 1.69838-4.473 1.582-3.626 0-4.147-1.063-4.869-2.534-.3466191-.8005927-.8283019-1.5356325-1.424-2.173-.6538977-.6558467-1.3617183-1.2556209-2.116-1.793-.21980675-.1376703-.41881738-.306038-.591-.5 0-.921 0-.994 2.482-1 .7094443 2.0777177 2.1584745 3.8218218 4.071 4.9.3197527.1596977.7004141.1366785.9985927-.0603866.2981787-.1970651.4685741-.5382372.4470001-.895-.0215741-.3567629-.2318401-.6749157-.5515928-.8346134zm3.553-5.1c0-1.6568542 1.3431458-3 3-3s3 1.3431458 3 3-1.3431458 3-3 3-3-1.3431458-3-3zm-4.41-12.817c-1.229441-1.0850511-2.7367356-1.8063225-4.353-2.083.2553149-.5258324.682067-.9490575 1.21-1.2.8628932-.3978056 1.8339354-.4960009 2.759-.279.0819464.0272223.1669069.0443487.253.051 1.2232532.3186385 2.4174787.7397953 3.57 1.259.86.354 1.749.721 2.655 1.023 1.3936744.3686708 2.8250183.57636 4.266.619 2.849.213 6.08.454 8.45 2.232.2858125.2143594.6642734.2599564.9928203.1196152.3285469-.1403411.5572656-.4452994.6-.8.0427344-.3547005-.1070078-.7052558-.3928203-.9196152-.8185116-.6000625-1.7190617-1.0793007-2.674-1.423-1.1544207-6.9126048-.8588308-13.98973621.868-20.782h1.156c.9456252.03005088 1.8388042.44164913 2.476 1.141.9929789 1.0415298 1.5552659 2.42009748 1.574 3.859 0 1.068.045 2.453.1 4.048.181 5.532.45 13.765-.871 19.869-3.029-.339-13.568-1.817-22.639-6.734z" fill="#000"/></g></g></svg>