<?xml version="1.0" encoding="iso-8859-1"?>
<!-- Generator: Adobe Illustrator 19.0.0, SVG Export Plug-In . SVG Version: 6.00 Build 0)  -->
<svg version="1.1" id="Layer_1" xmlns="http://www.w3.org/2000/svg" xmlns:xlink="http://www.w3.org/1999/xlink" x="0px" y="0px"
	 viewBox="0 0 512 512" style="enable-background:new 0 0 512 512;" xml:space="preserve">
<path style="fill:#FFD3AE;" d="M409.038,253.769v46.233v38.916c0,2.47-0.057,4.928-0.172,7.374
	c-2.343,49.415-28.153,92.708-66.507,118.966c-0.333,0.241-0.678,0.471-0.999,0.701c-24.386,16.403-53.745,25.982-85.356,25.982
	s-60.97-9.58-85.356-25.982c-0.322-0.23-0.666-0.459-0.999-0.701c-38.353-26.258-64.164-69.551-66.507-118.966
	c-0.115-2.447-0.172-4.905-0.172-7.374v-38.916v-46.233v-18.826v-23.984c0-42.592,17.402-81.129,45.487-108.869
	c27.637-27.303,65.622-44.166,107.548-44.166c41.237,0,78.66,16.311,107.537,44.154v0.011c0.23,0.207,0.459,0.436,0.678,0.655
	c27.694,27.694,44.82,65.956,44.82,108.214v23.984V253.769z M224.553,431.235c9.901,3.216,20.469,4.939,31.45,4.939
	c10.97,0,21.537-1.723,31.439-4.939c11.521-3.71,22.135-9.407,31.45-16.69c15.805-12.348,27.889-29.233,34.287-48.703h-34.287
	h-27.648c6.961-8.121,11.165-18.677,11.165-30.198c0-25.626-20.779-46.406-46.406-46.406c-25.626,0-46.406,20.779-46.406,46.406
	c0,11.521,4.204,22.077,11.165,30.198h-27.648h-34.299c6.409,19.47,18.482,36.355,34.287,48.703
	C202.419,421.828,213.044,427.525,224.553,431.235z M352.111,304.149c18.872-15.392,21.687-43.155,6.295-62.016l-38.755,31.622
	l-29.555,24.11C305.487,316.726,333.25,319.541,352.111,304.149z M221.911,297.865l-29.555-24.11l-38.756-31.622
	c-15.392,18.861-12.578,46.624,6.283,62.016C178.757,319.541,206.52,316.726,221.911,297.865z"/>
<path style="fill:#E8B995;" d="M203.085,465.959c-0.322-0.23-0.666-0.459-0.999-0.701c-38.353-26.258-64.164-69.551-66.507-118.966
	c-0.115-2.447-0.172-4.905-0.172-7.374v-38.916v-46.233v-18.826v-23.984c0-42.592,17.402-81.129,45.487-108.869
	c24-23.71,55.808-39.539,91.22-43.296c-5.299-0.559-10.668-0.868-16.11-0.868c-41.926,0-79.912,16.862-107.548,44.166
	c-28.085,27.74-45.487,66.277-45.487,108.869v23.984v18.826v46.233v38.916c0,2.47,0.057,4.928,0.172,7.374
	c2.343,49.415,28.153,92.708,66.507,118.966c0.333,0.241,0.678,0.471,0.999,0.701c24.386,16.403,53.745,25.982,85.356,25.982
	c5.47,0,10.864-0.311,16.184-0.872C246.783,488.389,223.234,479.512,203.085,465.959z"/>
<g>
	<path style="fill:#F2F2F2;" d="M193.115,365.843l-0.011,48.703c-15.805-12.348-27.878-29.233-34.287-48.703H193.115z"/>
	<path style="fill:#F2F2F2;" d="M224.553,369.771v61.464c-11.509-3.71-22.135-9.407-31.45-16.69l0.011-48.703h27.648
		C221.957,367.221,223.221,368.542,224.553,369.771z"/>
	<path style="fill:#F2F2F2;" d="M256.003,382.05v54.124c-10.981,0-21.549-1.723-31.45-4.939v-61.464
		C232.824,377.398,243.862,382.05,256.003,382.05z"/>
	<path style="fill:#F2F2F2;" d="M287.442,369.783v61.453c-9.901,3.216-20.469,4.939-31.439,4.939V382.05
		C268.133,382.05,279.172,377.398,287.442,369.783z"/>
	<path style="fill:#F2F2F2;" d="M318.892,365.843v48.703c-9.316,7.282-19.929,12.98-31.45,16.69v-61.453
		c1.332-1.241,2.607-2.55,3.802-3.94H318.892z"/>
	<path style="fill:#F2F2F2;" d="M318.892,365.843h34.287c-6.398,19.47-18.482,36.355-34.287,48.703V365.843z"/>
	<path style="fill:#F2F2F2;" d="M319.65,273.755l38.755-31.622c15.392,18.861,12.578,46.624-6.295,62.016
		c-18.861,15.392-46.624,12.578-62.016-6.283L319.65,273.755z"/>
	<path style="fill:#F2F2F2;" d="M192.357,273.755l29.555,24.11c-15.392,18.861-43.155,21.675-62.027,6.283
		c-18.861-15.392-21.675-43.155-6.283-62.016L192.357,273.755z"/>
</g>
<g>
	<path style="fill:#E8B995;" d="M409.038,253.769c19.952,5.904,34.505,24.374,34.505,46.233c0,21.928-14.645,40.433-34.678,46.291
		c0.115-2.447,0.172-4.905,0.172-7.374v-38.916V253.769z"/>
	<path style="fill:#E8B995;" d="M102.969,338.918c0,2.47,0.057,4.928,0.172,7.374c-20.044-5.847-34.689-24.363-34.689-46.291
		c0-21.859,14.565-40.341,34.517-46.233v46.233V338.918z"/>
</g>
<g>
	<path style="fill:#9AD14B;" d="M403.065,75.532c-0.471-2.619-0.724-5.318-0.724-8.087c0-25.512,20.687-46.199,46.199-46.199
		c25.535,0,46.222,20.687,46.222,46.199c0,12.957-5.33,24.639-13.91,33.035c13.508,8.075,22.537,22.824,22.537,39.686
		c0,21.032-14.048,38.767-33.276,44.361c0.322,2.228,0.494,4.491,0.494,6.812c0,25.523-20.687,46.222-46.199,46.222
		c-5.399,0-10.556-0.93-15.369-2.619v-23.984c0-42.259-17.126-80.52-44.82-108.214c-0.218-0.218-0.448-0.448-0.678-0.655v-0.011
		C370.616,87.03,385.548,76.405,403.065,75.532z"/>
	<path style="fill:#9AD14B;" d="M108.953,75.532c17.494,0.873,32.438,11.498,39.502,26.557
		c-28.085,27.74-45.487,66.277-45.487,108.869v23.984c-4.801,1.689-9.982,2.619-15.357,2.619c-25.523,0-46.21-20.699-46.21-46.222
		c0-2.32,0.172-4.583,0.505-6.811c-19.228-5.594-33.288-23.329-33.288-44.361c0-16.862,9.04-31.611,22.525-39.686
		c-8.569-8.397-13.899-20.078-13.899-33.035c0-25.512,20.687-46.199,46.21-46.199s46.21,20.687,46.21,46.199
		C109.665,70.214,109.413,72.914,108.953,75.532z"/>
</g>
<path style="fill:#F95428;" d="M224.553,369.771c-1.332-1.229-2.596-2.55-3.791-3.928c-6.961-8.121-11.165-18.677-11.165-30.198
	c0-25.626,20.779-46.406,46.406-46.406c25.626,0,46.406,20.779,46.406,46.406c0,11.521-4.204,22.077-11.165,30.198
	c-1.195,1.39-2.47,2.699-3.802,3.94c-8.27,7.616-19.309,12.268-31.439,12.268C243.862,382.05,232.824,377.398,224.553,369.771z"/>
<path style="fill:#E54728;" d="M251.776,365.843c-6.961-8.121-11.165-18.677-11.165-30.198c0-20.186,12.898-37.358,30.899-43.741
	c-4.851-1.721-10.068-2.665-15.507-2.665c-25.626,0-46.406,20.779-46.406,46.406c0,11.521,4.204,22.077,11.165,30.198
	c1.195,1.378,2.458,2.699,3.791,3.928c8.27,7.627,19.309,12.279,31.45,12.279c5.439,0,10.655-0.942,15.503-2.66
	c-5.968-2.115-11.377-5.411-15.94-9.62C254.235,368.542,252.971,367.222,251.776,365.843z"/>
<g>
	<path style="fill:#333333;" d="M512,139.57c0-15.8-6.949-30.828-18.614-41.146c6.493-9.172,9.989-20.088,9.989-31.57
		c0-30.226-24.597-54.817-54.83-54.817c-30.226,0-54.816,24.59-54.816,54.817c0,0.216,0.001,0.433,0.003,0.649
		c-12.852,2.782-24.218,10.11-32.104,20.592c-28.35-24.526-65.286-39.38-105.627-39.38c-40.342,0-77.279,14.857-105.63,39.384
		c-7.883-10.481-19.246-17.811-32.092-20.594c0.002-0.217,0.003-0.433,0.003-0.65c0-30.226-24.596-54.817-54.83-54.817
		S8.625,36.628,8.625,66.853c0,11.482,3.495,22.399,9.991,31.572C6.95,108.749,0,123.777,0,139.57
		c0,21.827,13.177,41.555,32.791,50.196c-0.006,0.329-0.009,0.656-0.009,0.982c0,30.232,24.596,54.829,54.829,54.829
		c2.266,0,4.518-0.142,6.747-0.417v1.984c-20.608,8.832-34.517,29.466-34.517,52.266c0,23.037,14.166,43.818,35.104,52.511
		c4.057,48.115,29.466,92.167,69.732,119.784c0.287,0.208,0.581,0.408,0.873,0.604l0.292,0.198
		c26.689,17.963,57.866,27.457,90.161,27.457c32.297,0,63.473-9.495,90.161-27.457c0.018-0.013,0.037-0.025,0.055-0.038l0.237-0.16
		c0.292-0.196,0.587-0.399,0.875-0.607c40.267-27.617,65.675-71.67,69.731-119.785c20.934-8.694,35.097-29.473,35.097-52.507
		c0-22.797-13.907-43.431-34.511-52.264v-1.986c2.232,0.275,4.484,0.417,6.753,0.417c30.226,0,54.816-24.596,54.816-54.829
		c0-0.325-0.002-0.651-0.008-0.978C498.82,181.133,512,161.401,512,139.57z M87.61,228.348c-20.732,0-37.599-16.867-37.599-37.599
		c0-1.831,0.137-3.657,0.419-5.585c0.631-4.299-2.054-8.308-6.222-9.532c-15.889-4.668-26.978-19.482-26.978-36.063
		c0-13.237,6.747-25.226,18.066-32.131c1.43-0.873,2.697-2.032,3.467-3.519c1.823-3.521,1.049-7.604-1.595-10.192
		c-7.759-7.594-11.81-17.905-11.265-28.821c0.94-18.78,16.015-34.182,34.77-35.537c21.984-1.59,40.381,15.841,40.381,37.486
		c0,2.116-0.195,4.318-0.58,6.545c-0.093,0.435-1.152,5.17-4.151,10.036c-2.797,4.537-6.235,7.648-10.416,9.396
		c-3.496,1.463-5.71,4.939-5.292,8.706l0.065,0.59c0.603,5.432,6.199,8.876,11.285,6.876c13.306-5.234,19.942-16.729,23.039-24.555
		c9.328,2.126,17.493,7.738,22.835,15.737c-26.957,28.892-43.481,67.637-43.481,110.175v17.377
		C92.141,228.139,89.888,228.348,87.61,228.348z M77.07,299.41c0-13.244,6.733-25.437,17.287-32.694v65.39
		C83.8,324.852,77.07,312.668,77.07,299.41z M400.419,338.318c0,47.685-23.524,92.261-62.929,119.242
		c-0.085,0.057-0.168,0.117-0.25,0.178c-0.133,0.098-0.272,0.188-0.408,0.28l-0.287,0.194
		c-23.835,16.042-51.686,24.521-80.541,24.521s-56.707-8.479-80.486-24.484l-0.339-0.23c-0.139-0.094-0.28-0.186-0.417-0.287
		c-0.08-0.059-0.162-0.117-0.245-0.173c-39.405-26.981-62.929-71.556-62.929-119.242V210.36
		c0-79.631,64.785-144.417,144.417-144.417s144.417,64.785,144.417,144.417v127.957H400.419z M434.93,299.41
		c0,13.255-6.728,25.438-17.281,32.692v-65.381C428.199,273.978,434.93,286.169,434.93,299.41z M467.705,175.66
		c-4.156,1.208-6.712,5.365-6.102,9.651c0.255,1.795,0.385,3.623,0.385,5.437c0,20.732-16.861,37.599-37.586,37.599
		c-2.281,0-4.537-0.209-6.753-0.61v-17.378c0-42.539-16.526-81.287-43.484-110.179c5.344-7.997,13.513-13.608,22.846-15.733
		c3.096,7.827,9.733,19.321,23.036,24.554c5.086,2,10.682-1.444,11.285-6.876l0.079-0.711c0.412-3.711-1.782-7.127-5.232-8.555
		c-4.083-1.691-7.462-4.676-10.233-9.019c-3.161-4.953-4.286-9.884-4.412-10.472c-0.38-2.141-0.574-4.333-0.574-6.515
		c0-21.126,17.518-38.236,38.79-37.568c19.782,0.621,35.932,16.89,36.386,36.676c0.24,10.446-3.737,20.271-11.14,27.602
		c-1.085,1.075-1.972,2.358-2.397,3.825c-1.145,3.964,0.565,7.928,3.835,9.884c11.482,6.871,18.336,18.944,18.336,32.294
		C494.77,156.187,483.641,171.029,467.705,175.66z"/>
	<path style="fill:#333333;" d="M352.96,234.858l-66.599,54.336c-8.708-5.783-19.143-9.164-30.358-9.164s-21.65,3.379-30.358,9.164
		l-66.599-54.336c-3.687-3.007-9.113-2.457-12.122,1.229c-18.368,22.514-14.996,55.773,7.518,74.141
		c9.765,7.966,21.548,11.843,33.263,11.843c5.23,0,10.44-0.791,15.456-2.318c-1.409,4.86-2.18,9.99-2.18,15.298
		c0,7.656,1.576,14.95,4.413,21.579h-46.577c-2.762,0-5.358,1.326-6.978,3.564c-1.621,2.238-2.069,5.117-1.205,7.742
		c14.998,45.611,57.343,76.256,105.37,76.256c48.021,0,90.361-30.645,105.36-76.256c0.863-2.625,0.415-5.504-1.205-7.742
		c-1.62-2.239-4.216-3.564-6.978-3.564h-46.571c2.837-6.629,4.413-13.923,4.413-21.579c0-5.308-0.771-10.437-2.18-15.297
		c5.015,1.527,10.225,2.318,15.455,2.318c11.714,0,23.5-3.878,33.263-11.843c22.514-18.368,25.886-51.627,7.518-74.141
		c-1.445-1.77-3.533-2.895-5.806-3.125C357.002,232.735,354.73,233.415,352.96,234.858z M293.794,335.052
		c0,20.838-16.953,37.791-37.792,37.791c-20.838,0-37.791-16.953-37.791-37.791s16.953-37.791,37.791-37.791
		C276.841,297.26,293.794,314.214,293.794,335.052z M310.28,409.676c-4.477,3.181-9.234,5.965-14.22,8.32V373.86h14.22V409.676z
		 M201.73,373.86h14.211v44.134c-4.986-2.354-9.743-5.139-14.219-8.319L201.73,373.86z M233.171,385.092
		c4.454,2.041,9.221,3.513,14.215,4.302v37.162c-4.839-0.442-9.589-1.244-14.215-2.4V385.092z M264.615,389.393
		c4.993-0.789,9.76-2.259,14.215-4.299v39.062c-4.626,1.156-9.375,1.958-14.215,2.4V389.393z M165.335,296.879
		c-7.34-5.988-11.909-14.476-12.865-23.901c-0.658-6.497,0.455-12.903,3.17-18.66l23.313,19.021l-5.854,5.045
		c-3.603,3.106-4.008,8.546-0.902,12.15c1.703,1.977,4.11,2.991,6.53,2.991c1.992,0,3.994-0.687,5.62-2.089l8.162-7.035
		l16.457,13.427C196.238,307.323,178.186,307.364,165.335,296.879z M171.545,373.86h12.956l-0.005,19.995
		C179.406,387.839,175.033,381.142,171.545,373.86z M327.509,393.85v-19.99h12.946C336.968,381.14,332.597,387.836,327.509,393.85z
		 M359.535,272.978c-0.956,9.425-5.525,17.913-12.865,23.901c-7.34,5.989-16.573,8.764-25.997,7.804
		c-6.497-0.658-12.549-3.035-17.643-6.851l16.465-13.434l8.154,7.033c1.628,1.404,3.63,2.092,5.623,2.092
		c2.418,0,4.823-1.013,6.528-2.988c3.108-3.603,2.706-9.043-0.896-12.15l-5.851-5.047l23.313-19.021
		C359.081,260.075,360.194,266.481,359.535,272.978z"/>
	<path style="fill:#333333;" d="M160.327,198.063l4.96-2.127c3.499-1.498,7.498-0.729,10.19,1.962l29.351,29.351
		c5.163,5.162,11.945,7.743,18.726,7.743s13.563-2.581,18.726-7.743c3.364-3.364,3.364-8.819,0-12.184
		c-3.364-3.363-8.819-3.364-12.184,0c-3.608,3.608-9.479,3.609-13.088,0l-29.35-29.351c-7.702-7.702-19.147-9.905-29.161-5.616
		l-4.961,2.127c-4.373,1.875-6.398,6.94-4.523,11.313C150.889,197.912,155.954,199.936,160.327,198.063z"/>
	<path style="fill:#333333;" d="M324.347,185.715l-29.352,29.35c-3.608,3.609-9.48,3.609-13.088,0
		c-3.366-3.364-8.818-3.363-12.184,0c-3.364,3.364-3.363,8.819,0,12.184c5.163,5.162,11.945,7.743,18.726,7.743
		c6.782,0,13.564-2.581,18.727-7.744l29.352-29.351c2.691-2.69,6.691-3.462,10.189-1.962l4.961,2.127
		c4.373,1.873,9.437-0.15,11.313-4.523c1.875-4.373-0.15-9.437-4.523-11.313l-4.962-2.127
		C343.494,175.807,332.049,178.013,324.347,185.715z"/>
</g>
<g>
</g>
<g>
</g>
<g>
</g>
<g>
</g>
<g>
</g>
<g>
</g>
<g>
</g>
<g>
</g>
<g>
</g>
<g>
</g>
<g>
</g>
<g>
</g>
<g>
</g>
<g>
</g>
<g>
</g>
</svg>
