<?xml version="1.0" encoding="UTF-8"?>
<svg xmlns="http://www.w3.org/2000/svg" xmlns:xlink="http://www.w3.org/1999/xlink" width="512" height="512" viewBox="0 0 58 58" version="1.1"><!-- Generator: Sketch 51.3 (57544) - http://www.bohemiancoding.com/sketch --><title>062 - Conflict</title><desc>Created with Sketch.</desc><defs/><g id="Page-1" stroke="none" stroke-width="1" fill="none" fill-rule="evenodd"><g id="062---Conflict" transform="translate(-1.000000, 0.000000)" fill-rule="nonzero"><path d="M58.213,21.22 C56.943,20.57 55.672,22.5 55.672,22.5 L55.593,22.49 C55.7559709,19.4955491 55.7559709,16.4944509 55.593,13.5 C55,0.64 40.193,0 40.193,0 L37.812,0 C35.0859428,0.209347994 32.4229586,0.925966149 29.96,2.113 C27.5186807,0.949456062 24.8835087,0.246675732 22.187,0.04 L19.807,0.04 C19.807,0.04 5,0.68 4.407,13.54 C4.24402908,16.5344509 4.24402908,19.5355491 4.407,22.53 L4.328,22.54 C4.328,22.54 3.057,20.61 1.787,21.26 C0.528,21.89 1.148,27.68 1.148,27.68 C1.148,27.68 1.778,32.14 5.528,34.08 C5.367,37.8 5.088,41.18 9.148,45.04 C9.63007511,45.4951694 10.0873982,45.9758594 10.518,46.48 L10.518,56 C10.5179862,57.100676 11.4073377,57.9944966 12.508,58 L29.487,58 C29.6832883,57.9960853 29.8778421,57.9623671 30.064,57.9 C30.2109996,57.9359555 30.3616721,57.9547476 30.513,57.956 L47.492,57.956 C48.5926623,57.9504966 49.4820138,57.056676 49.482,55.956 L49.482,46.44 C49.9126018,45.9358594 50.3699249,45.4551694 50.852,45 C54.912,41.14 54.633,37.76 54.472,34.04 C58.222,32.1 58.852,27.64 58.852,27.64 C58.852,27.64 59.472,21.85 58.213,21.22 Z" id="Shape" fill="#B0D3F0"/><path d="M55.593,22.49 C55.273,27.45 54.412,29.02 54.412,32.14 C54.412,32.79 54.433,33.42 54.472,34.04 C54.633,37.76 54.912,41.14 50.852,45 C50.3699249,45.4551694 49.9126018,45.9358594 49.482,46.44 C46.063,50.41 45.6,54 41.373,54 L36.633,54 C32.403,54 31.943,50.41 28.523,46.44 C28.0923982,45.9358594 27.6350751,45.4551694 27.153,45 C23.093,41.14 23.373,37.76 23.533,34.04 C23.573,33.42 23.593,32.79 23.593,32.14 C23.593,29.02 22.732,27.45 22.412,22.49 C22.2490291,19.4955491 22.2490291,16.4944509 22.412,13.5 C23,0.64 37.813,0 37.813,0 L40.193,0 C40.193,0 55.003,0.64 55.593,13.5 C55.7559709,16.4944509 55.7559709,19.4955491 55.593,22.49 Z" id="Shape" fill="#35495E"/><path d="M58.852,27.64 C58.852,27.64 58.222,32.1 54.472,34.04 C54.433,33.42 54.412,32.79 54.412,32.14 C54.412,29.02 55.273,27.45 55.593,22.49 L55.672,22.5 C55.672,22.5 56.943,20.57 58.213,21.22 C59.472,21.85 58.852,27.64 58.852,27.64 Z" id="Shape" fill="#2C3E50"/><path d="M49.482,46.44 L49.482,55.96 C49.4820138,57.060676 48.5926623,57.9544966 47.492,57.96 L30.513,57.96 C29.4123377,57.9544966 28.5229862,57.060676 28.523,55.96 L28.523,46.44 C31.943,50.41 32.403,54 36.633,54 L41.373,54 C45.6,54 46.063,50.41 49.482,46.44 Z" id="Shape" fill="#2C3E50"/><path d="M5.588,32.18 C5.588,32.83 5.567,33.46 5.528,34.08 C1.778,32.14 1.148,27.68 1.148,27.68 C1.148,27.68 0.528,21.89 1.787,21.26 C3.057,20.61 4.328,22.54 4.328,22.54 L4.407,22.53 C4.727,27.49 5.588,29.06 5.588,32.18 Z" id="Shape" fill="#C03A2B"/><path d="M37.588,22.53 C37.268,27.49 36.407,29.06 36.407,32.18 C36.407,32.83 36.427,33.46 36.467,34.08 C36.627,37.8 36.907,41.18 32.847,45.04 C32.3649249,45.4951694 31.9076018,45.9758594 31.477,46.48 C28.057,50.45 27.597,54.04 23.367,54.04 L18.627,54.04 C14.398,54.04 13.937,50.45 10.518,46.48 C10.0873982,45.9758594 9.63007511,45.4951694 9.148,45.04 C5.088,41.18 5.367,37.8 5.528,34.08 C5.567,33.46 5.588,32.83 5.588,32.18 C5.588,29.06 4.727,27.49 4.407,22.53 C4.24402908,19.5355491 4.24402908,16.5344509 4.407,13.54 C4.997,0.68 19.807,0.04 19.807,0.04 L22.187,0.04 C22.187,0.04 36.997,0.68 37.587,13.54 C37.750304,16.5344328 37.7506378,19.535531 37.588,22.53 Z" id="Shape" fill="#E64C3C"/><path d="M40.847,27.68 C40.847,27.68 40.217,32.14 36.467,34.08 C36.427,33.46 36.407,32.83 36.407,32.18 C36.407,29.06 37.268,27.49 37.588,22.53 L37.667,22.54 C37.667,22.54 38.937,20.61 40.208,21.26 C41.467,21.89 40.847,27.68 40.847,27.68 Z" id="Shape" fill="#C03A2B"/><path d="M31.477,46.48 L31.477,56 C31.4770138,57.100676 30.5876623,57.9944966 29.487,58 L12.508,58 C11.4073377,57.9944966 10.5179862,57.100676 10.518,56 L10.518,46.48 C13.937,50.45 14.398,54.04 18.627,54.04 L23.367,54.04 C27.6,54.04 28.057,50.45 31.477,46.48 Z" id="Shape" fill="#C03A2B"/><path d="M41.5,20.04 L46,20.04 C47.3273046,20.0439999 48.6013996,19.5185003 49.5399499,18.5799499 C50.4785003,17.6413996 51.0039999,16.3673046 51,15.04 C51,12.2785763 48.7614237,10.04 46,10.04 C46.8165702,8.96087108 47.2557788,7.64324528 47.25,6.29 C47.2488961,2.83867766 44.4513223,0.0411038934 41,0.04 C40.9132114,0.0381417949 40.8263895,0.0414811018 40.74,0.05 C40.6831457,0.0480414038 40.6262326,0.0513892326 40.57,0.06 C40.4863236,0.0612897276 40.4028172,0.0679702361 40.32,0.08 C40.2694657,0.0817382534 40.2192244,0.0884370946 40.17,0.1 C38.0906237,0.375626126 36.2899438,1.6800852 35.38,3.57 C35.0746316,4.1918867 34.8784413,4.86163971 34.8,5.55 C33.858177,4.42731268 32.4654,3.78223703 31,3.79 C28.2385763,3.79 26,6.02857625 26,8.79 C25.9964386,9.21199223 26.0502648,9.63250974 26.16,10.04 L26,10.04 C24.6726954,10.0360001 23.3986004,10.5614997 22.4600501,11.5000501 C21.5214997,12.4386004 20.9960001,13.7126954 21,15.04 C21,17.8014237 23.2385763,20.04 26,20.04 L41.5,20.04 Z" id="Shape" fill="#95A5A5"/><path d="M51,15.04 C51.0039999,16.3673046 50.4785003,17.6413996 49.5399499,18.5799499 C48.6013996,19.5185003 47.3273046,20.0439999 46,20.04 L26,20.04 C23.2385763,20.04 21,17.8014237 21,15.04 C21.0030684,14.7010206 21.0365359,14.3629996 21.1,14.03 C21.5907611,16.3444922 23.6340497,17.999973 26,18 L46,18 C47.325739,17.9960723 48.5969394,17.4717919 49.54,16.54 C50.2209889,15.8443841 50.6923128,14.9710486 50.9,14.02 C50.9639538,14.3562989 50.9974229,14.6976838 51,15.04 Z" id="Shape" fill="#7F8C8D"/><path d="M32.036,18.6 L34.336,22.045 C34.5008632,22.2921892 34.5472668,22.5998902 34.4626338,22.8847053 C34.3780009,23.1695204 34.1710969,23.4019509 33.898,23.519 L29.361,25.463 C29.0559771,25.5935699 28.835578,25.8669289 28.7726668,26.1927044 C28.7097557,26.5184799 28.8125253,26.8542467 29.047,27.089 L34.296,32.338 C34.582915,32.6224115 35.0127788,32.7062481 35.3855396,32.5504936 C35.7583004,32.3947391 36.0007278,32.029992 36,31.626 L36,28.733 C36.0001565,28.3162446 36.2587604,27.9432811 36.649,27.797 L42.96,25.43 C43.2254595,25.3304323 43.4361773,25.1228618 43.5397283,24.8589306 C43.6432794,24.5949994 43.6299295,24.299518 43.503,24.046 L40.276,17.593 C40.1067365,17.2542706 39.7606657,17.0402022 39.382,17.04 L32.869,17.04 C32.4982503,17.0383263 32.1570031,17.2419131 31.9823677,17.5689614 C31.8077323,17.8960097 31.8283743,18.292836 32.036,18.6 Z" id="Shape" fill="#F0C419"/></g></g></svg>
