<?xml version="1.0" encoding="iso-8859-1"?>
<!-- Generator: Adobe Illustrator 19.0.0, SVG Export Plug-In . SVG Version: 6.00 Build 0)  -->
<svg version="1.1" id="Capa_1" xmlns="http://www.w3.org/2000/svg" xmlns:xlink="http://www.w3.org/1999/xlink" x="0px" y="0px"
	 viewBox="0 0 512 512" style="enable-background:new 0 0 512 512;" xml:space="preserve">
<circle style="fill:#FF6838;" cx="256" cy="256" r="256"/>
<path style="fill:#AE4E32;" d="M512,256c0-20.995-2.546-41.393-7.313-60.92l-74.42-74.42l-59.01,182.332L204.434,136.168
	l-87.57,275.045l97.378,97.377C227.833,510.821,241.778,512,256,512C397.385,512,512,397.385,512,256z"/>
<polygon style="fill:#35CCFF;" points="239.054,292.263 238.803,228.282 204.583,174.222 204.459,142.613 57.417,185.553 
	121.073,403.533 273.325,359.072 273.275,346.327 "/>
<polygon style="fill:#00BAFF;" points="273.275,346.327 239.054,292.263 238.803,228.282 204.583,174.222 204.459,142.613 
	122.298,166.606 185.091,384.838 273.325,359.071 "/>
<polygon style="fill:#35CCFF;" points="424.074,126.853 281.297,126.853 272.555,157.229 290.248,218.714 272.555,280.2 
	290.248,341.69 286.724,353.937 424.074,353.937 "/>
<rect x="348.21" y="126.85" style="fill:#00BAFF;" width="75.859" height="227.09"/>
<polygon style="fill:#FFFFFF;" points="125.282,395.852 65.098,189.761 204.485,149.057 204.434,136.169 61.626,177.872 
	49.737,181.344 53.209,193.233 113.392,399.324 116.864,411.214 128.754,407.742 273.35,365.516 273.3,352.627 "/>
<g>
	<polygon style="fill:#E0E0E0;" points="204.485,149.057 204.434,136.168 120.586,160.654 124.01,172.558 	"/>
	<polygon style="fill:#E0E0E0;" points="273.3,352.627 183.379,378.887 186.804,390.79 273.35,365.516 	"/>
</g>
<polygon style="fill:#FFFFFF;" points="417.881,120.66 283.079,120.66 279.514,133.045 417.881,133.045 417.881,347.745 
	288.506,347.745 284.942,360.13 417.881,360.13 430.266,360.13 430.266,347.745 430.266,133.045 430.266,120.66 "/>
<polygon style="fill:#E0E0E0;" points="417.881,120.66 348.214,120.66 348.214,133.045 417.881,133.045 417.881,347.745 
	348.214,347.745 348.214,360.13 417.881,360.13 430.266,360.13 430.266,347.745 430.266,133.045 430.266,120.66 "/>
<rect x="107.318" y="245.961" transform="matrix(0.9599 -0.2803 0.2803 0.9599 -74.0923 55.5293)" style="fill:#754C24;" width="99.539" height="81.669"/>
<polygon style="fill:#603813;" points="193.409,233.652 145.332,247.692 167.457,326.314 216.303,312.049 "/>
<path style="fill:#F2D99C;" d="M217.894,306.135l-33.502,5.3c-4.113,0.65-8.068-1.856-9.235-5.853l-4.278-14.648l-23.33,6.813
	l4.278,14.648c1.167,3.997-0.818,8.238-4.634,9.903l-31.089,13.562c-2.695,1.176-5.019,2.871-6.906,4.918l7.559,25.885
	c9.82,8.696,20.627,16.17,32.159,22.288l88.71-25.905c4.26-4.149,8.194-8.594,11.77-13.297l-8.474-29.019
	C238.012,310.764,228.149,304.513,217.894,306.135z"/>
<path style="fill:#D8C393;" d="M249.396,349.748l-8.474-29.019c-2.91-9.966-12.773-16.217-23.028-14.595l-33.502,5.3
	c-4.113,0.65-8.068-1.856-9.235-5.853l-4.278-14.648l-11.815,3.451l24.315,84.503l54.247-15.842
	C241.886,358.896,245.82,354.451,249.396,349.748z"/>
<path style="fill:#FFECB3;" d="M181.929,290.164l-5.354,5.276c-8.228,8.108-19.978,11.539-31.276,9.133l-7.352-1.566
	c-13.577-2.891-24.471-13.004-28.362-26.329L98.141,237.49l82.08-23.97l11.444,39.189
	C195.556,266.035,191.817,280.42,181.929,290.164z"/>
<path style="fill:#FFD863;" d="M181.929,290.164c9.888-9.744,13.627-24.129,9.736-37.455l-11.444-39.189l-40.98,11.968
	l22.595,78.527c5.474-1.553,10.562-4.458,14.739-8.575L181.929,290.164z"/>
<path style="fill:#008CC3;" d="M217.894,306.135l-28.354,4.485c-4.057,8.007-11.282,14.385-20.578,17.1s-18.818,1.227-26.546-3.338
	l-26.312,11.478c-2.695,1.176-5.019,2.871-6.906,4.918l16.083,55.075l126.768-37.019l-11.127-38.103
	C238.012,310.764,228.149,304.513,217.894,306.135z"/>
<path style="fill:#0074A3;" d="M240.922,320.729c-2.91-9.966-12.773-16.217-23.028-14.595l-28.354,4.485
	c-4.057,8.007-11.282,14.385-20.578,17.1c-0.095,0.028-0.19,0.048-0.285,0.075l14.701,51.092l68.67-20.054L240.922,320.729z"/>
<path style="fill:#8C6239;" d="M128.564,189.777c-26.377,7.802-41.214,35.791-33.503,62.195l19.482,66.714l1.717-14.911
	c0.494-4.292,0.125-8.639-1.086-12.786l-7.799-26.708c41.162-17.898,51.151-42.142,51.151-42.142s9.81,12.076,28.344,18.98
	l7.785,26.658c1.211,4.147,3.239,8.01,5.966,11.361l9.472,11.643l-19.634-67.233C182.737,197.109,155,181.957,128.564,189.777z"/>
<path style="fill:#754C24;" d="M190.459,223.55c-7.685-26.317-35.199-41.442-61.523-33.874l14.815,51.487
	c11.294-10.59,14.776-19.024,14.776-19.024s9.81,12.077,28.344,18.98l7.785,26.659c1.211,4.146,3.239,8.01,5.966,11.361
	l9.472,11.643L190.459,223.55z"/>
<circle style="fill:#F2D99C;" cx="306.64" cy="209.81" r="11.988"/>
<circle style="fill:#D8C08B;" cx="390.75" cy="209.81" r="11.988"/>
<path style="fill:#F2D99C;" d="M410.145,280.83l-38.993-4.988c-4.787-0.613-8.373-4.686-8.373-9.512v-17.686h-28.168v17.686
	c0,4.826-3.586,8.9-8.373,9.512l-38.993,4.988c-3.365,0.43-6.484,1.558-9.238,3.21c0.663,2.828,0.361,5.773,0.488,8.961
	c0.094,2.365,0.664,4.594,1.455,6.758c0.446,0.75,0.907,1.493,1.39,2.223c4.326,6.543,10.286,12.073,13.951,19.04
	c0.599,0.806,1.199,1.613,1.799,2.42c3.19,4.285,7.131,10.051,5.511,15.69c-0.592,2.061-1.981,4.113-3.808,5.443
	c2.474,1.137,4.99,2.199,7.551,3.169h82.322c11.498-11.19,21.363-24.045,29.212-38.177v-26.363
	C415.511,282.008,412.911,281.184,410.145,280.83z"/>
<path style="fill:#D8C08B;" d="M410.145,280.83l-38.993-4.988c-4.787-0.613-8.373-4.687-8.373-9.512v-17.686h-14.084v99.101h39.973
	c11.498-11.19,21.363-24.044,29.212-38.177v-26.363C415.511,282.008,412.911,281.184,410.145,280.83z"/>
<path style="fill:#FFECB3;" d="M371.67,255.982l-6.619,3.564c-10.17,5.476-22.412,5.476-32.582,0l-6.619-3.564
	c-12.223-6.581-19.845-19.342-19.845-33.224v-40.825h85.508v40.825C391.515,236.64,383.893,249.401,371.67,255.982z"/>
<path style="fill:#FFD863;" d="M348.214,181.933v81.704c5.784,0.092,11.587-1.264,16.837-4.091l6.619-3.564
	c12.223-6.581,19.844-19.342,19.844-33.224v-40.826h-43.3V181.933z"/>
<g>
	<path style="fill:#FFFFFF;" d="M242.65,297.945c-3.527,5.619-4.69,12.642-2.71,19.424l12.109,41.464l21.25-6.206l-0.025-6.3
		L242.65,297.945z"/>
	<path style="fill:#FFFFFF;" d="M410.145,280.83l-33.001-4.221c-7.115,7.589-17.225,12.338-28.449,12.338
		s-21.334-4.749-28.449-12.338l-33.001,4.221c-4.928,0.63-9.343,2.735-12.832,5.833l15.834,55.027l-1.742,6.055h100.171
		c11.491-11.187,21.355-24.035,29.203-38.16v-26.379C415.511,282.008,412.911,281.184,410.145,280.83z"/>
</g>
<path style="fill:#F2F2F2;" d="M417.881,347.744v-64.539c-2.37-1.197-4.97-2.022-7.736-2.376l-33.001-4.221
	c-7.115,7.59-17.225,12.338-28.449,12.338v58.798H417.881z"/>
<path style="fill:#E0E0E0;" d="M346.666,288.893c-10.41-0.535-19.735-5.156-26.419-12.285l-14.241,1.822l22.55,29.101l20.14-18.575
	C348.014,288.956,347.337,288.934,346.666,288.893z"/>
<path style="fill:#C0C0C0;" d="M348.696,288.956l20.14,18.575l22.55-29.101l-14.241-1.822c-6.683,7.129-16.009,11.75-26.419,12.285
	C350.054,288.934,349.377,288.956,348.696,288.956z"/>
<path style="fill:#4D4D4D;" d="M391.021,228.035h7.51V194.43c0-27.546-22.378-49.865-49.946-49.77
	c-27.507,0.095-49.594,22.803-49.594,50.31v33.064h7.016v-23.222c32.564,4.218,58.339-19.077,58.339-19.077
	s11.3,21.892,26.676,25.775v16.525H391.021z"/>
<path style="fill:#333333;" d="M348.584,144.66c-0.124,0-0.246,0.009-0.37,0.011v51.755c10.017-5.177,16.131-10.691,16.131-10.691
	s11.3,21.893,26.676,25.775v16.524h7.51V194.43C398.531,166.884,376.153,144.564,348.584,144.66z"/>
<g>
</g>
<g>
</g>
<g>
</g>
<g>
</g>
<g>
</g>
<g>
</g>
<g>
</g>
<g>
</g>
<g>
</g>
<g>
</g>
<g>
</g>
<g>
</g>
<g>
</g>
<g>
</g>
<g>
</g>
</svg>
