<?xml version="1.0" encoding="iso-8859-1"?>
<!-- Generator: Adobe Illustrator 19.0.0, SVG Export Plug-In . SVG Version: 6.00 Build 0)  -->
<svg version="1.1" id="Layer_1" xmlns="http://www.w3.org/2000/svg" xmlns:xlink="http://www.w3.org/1999/xlink" x="0px" y="0px"
	 viewBox="0 0 511.999 511.999" style="enable-background:new 0 0 511.999 511.999;" xml:space="preserve">
<g>
	<g>
		<path d="M279.959,0c-9.321,0-17.518,4.724-22.389,11.892l-8.2,17.802l12.371,16.868l0.63,0.86l-0.355,0.745l-8.988,18.879
			l5.721-19.002l-15.766-15.785l-1.208-1.209l0.612-2.131l6.267-21.823C243.844,2.694,237.445,0,230.408,0
			c-14.962,0-27.091,12.129-27.091,27.091c0,29.365,37.576,58.935,48.762,67.087c1.85,1.348,4.364,1.347,6.214-0.002
			c11.189-8.155,48.759-37.722,48.759-67.084C307.051,12.129,294.922,0,279.959,0z"/>
	</g>
</g>
<g>
	<g>
		<path d="M267.011,433.978l-68.552-60.306l-2.937-21.538l-33.338,8.358v42.79l74.317,65.376c9.577,8.424,24.171,7.491,32.597-2.086
			C277.522,456.997,276.589,442.403,267.011,433.978z"/>
	</g>
</g>
<g>
	<g>
		<path d="M144.092,365.029l-42.027,10.537v113.337c0,12.755,10.34,23.096,23.096,23.096s23.096-10.341,23.096-23.096V363.986
			L144.092,365.029z"/>
	</g>
</g>
<g>
	<g>
		<path d="M225.888,312.999c0,0-81.729-179.805-81.727-179.804c-4.824-10.593-15.988-16.895-27.049-14.124
			c-15.389,3.858-25.141,6.303-39.006,9.78c-5.572,1.397-10.174,4.917-13.223,9.633l0.197,7.74l19.358-6.386l-37.018,22.948
			l-1.765-69.401c-0.254-9.979-8.565-17.901-18.529-17.61c-9.98,0.254-17.865,8.55-17.61,18.53l2.566,100.914
			c0.165,6.474,3.781,12.367,9.48,15.445c5.697,3.077,12.609,2.871,18.114-0.542l63.814-39.561L64.54,209.966l9.144,141.193
			c0.438,6.758,6.516,11.543,12.513,10.039c29.12-7.301,104.254-26.138,133.394-33.443
			C225.602,326.247,228.674,319.129,225.888,312.999z"/>
	</g>
</g>
<g>
	<g>
		<path d="M106.174,63.4c-5.356-21.366-27.02-34.349-48.393-28.991c-12.725,3.19-22.473,12.165-27.148,23.416
			c18.146,1.514,32.618,16.482,33.091,35.101l0.507,19.941c4.364,0.356,8.703-0.009,12.951-1.074
			C98.552,106.435,111.531,84.769,106.174,63.4z"/>
	</g>
</g>
<g>
	<g>
		<path d="M490.709,486.344l-7.825-120.096c-0.149-2.299-0.629-4.565-1.422-6.727l-14.954-40.773
			c-17.831-0.081-25.931-10.645-34.962-19.902l-44.415-45.528c-4.928-5.049-12.105-10.797-10.376-22.024l10.168-66.042l6.935,64.196
			c0.482,4.466,2.45,8.642,5.587,11.858l52.866,54.19c7.744,7.935,20.448,8.088,28.379,0.351c7.934-7.74,8.091-20.446,0.351-28.379
			l-48.023-49.227l-6.19-57.301l16.778,43.521l22.031,22.582l6.612-80.434c0.657-7.991-1.865-15.506-6.499-21.316
			c-14.936,1.19-28.956-3.445-39.935-12.208c-37.082,1.615-68.047,30.586-71.167,68.544l-8.287,104.418l12.708,82.933l-30.86,112.56
			c-3.517,12.827,4.031,26.078,16.858,29.594c12.831,3.516,26.076-4.032,29.592-16.858l32.217-117.508
			c0.894-3.262,1.092-6.676,0.579-10.019L396.6,295.972l10.573,0.869l27.875,76.001l7.597,116.632
			c0.83,12.739,11.422,22.518,24.008,22.518C480.637,511.992,491.611,500.194,490.709,486.344z"/>
	</g>
</g>
<g>
	<g>
		<circle cx="461.197" cy="68.67" r="41.294"/>
	</g>
</g>
<g>
</g>
<g>
</g>
<g>
</g>
<g>
</g>
<g>
</g>
<g>
</g>
<g>
</g>
<g>
</g>
<g>
</g>
<g>
</g>
<g>
</g>
<g>
</g>
<g>
</g>
<g>
</g>
<g>
</g>
</svg>
