<?xml version="1.0" encoding="iso-8859-1"?>
<!-- Generator: Adobe Illustrator 19.0.0, SVG Export Plug-In . SVG Version: 6.00 Build 0)  -->
<svg version="1.1" id="Capa_1" xmlns="http://www.w3.org/2000/svg" xmlns:xlink="http://www.w3.org/1999/xlink" x="0px" y="0px"
	 viewBox="0 0 512.001 512.001" style="enable-background:new 0 0 512.001 512.001;" xml:space="preserve">
<path style="fill:#FDD8A8;" d="M291.232,250.315V512H139.856v-54.688H57.282v-70.186H9.114l12.388-113.539
	c0,0-12.388-24.536-12.388-24.766c0-79.164,65.201-143.09,144.826-141.014c0.702,0.02,1.394,0.04,2.096,0.07
	c48.68,1.986,90.669,28.909,114.432,68.1c8.386,13.802,14.495,29.13,17.835,45.43C290.229,230.754,291.232,240.434,291.232,250.315z
	"/>
<rect x="139.851" y="457.308" style="fill:#FFC477;" width="71.56" height="20.062"/>
<path style="fill:#FFFFFF;" d="M50.132,245.412H35.086c0-5.065,0.325-10.164,0.965-15.155l14.924,1.914
	C50.416,236.531,50.132,240.986,50.132,245.412z M53.699,218.436l-14.525-3.926c13.318-49.262,56.459-84.377,107.348-87.38
	l0.887,15.021C102.986,144.772,65.327,175.429,53.699,218.436z"/>
<g>
	<path style="fill:#FFC477;" d="M288.303,221.406c1.926,9.349,2.929,19.029,2.929,28.909v76.405L173.62,366.552L288.303,221.406z"/>
	<path style="fill:#FFC477;" d="M270.469,175.976L165.596,305.364l22.921-152.439l-33.995-32.179l1.515-12.87
		C204.716,109.862,246.705,136.785,270.469,175.976z"/>
</g>
<polygon style="fill:#FDD844;" points="269.159,144.586 241.555,99.127 271.682,30.417 187.792,9.916 175.627,113.098 
	209.903,145.55 195.59,241.166 "/>
<polygon style="fill:#FFC477;" points="291.232,352.128 291.232,425.133 198.698,347.494 "/>
<polygon style="fill:#BCF4E2;" points="342.885,439.26 388.343,411.656 477.556,441.784 477.556,345.728 374.373,345.728 
	341.921,380.005 246.305,365.692 "/>
<polygon style="fill:#70F2C3;" points="388.343,391.594 342.885,419.198 279.083,370.599 246.305,365.692 342.885,439.26 
	388.343,411.656 477.556,441.784 477.556,420.248 "/>
<polygon style="fill:#FE635F;" points="401.895,261.713 401.895,177.082 499.624,108.506 402.451,11.334 300.682,141.632 
	320.501,214.083 222.06,332.317 "/>
<path style="fill:#FFFFFF;" d="M339.62,152.887l-11.858-9.26l9.174-11.745l11.858,9.26L339.62,152.887z M358.055,129.283
	l-11.858-9.261l53.1-67.985l11.858,9.261L358.055,129.283z"/>
<polygon style="fill:#FE3833;" points="222.06,332.317 401.894,261.713 401.894,241.651 246.874,302.513 "/>
<path d="M197.519,350.033l211.898-83.193v-85.847l101.859-71.474L401.757,0L292.429,139.977l19.78,72.308L197.519,350.033z
	 M308.934,143.288l94.211-120.62l84.825,84.824l-93.599,65.679v83.414L246.6,314.6l82.192-98.719L308.934,143.288z"/>
<path d="M183.81,269.047l94.441-123.983l-28.236-46.498l32.153-73.331L181.317,0.588l-13.604,115.378l34.169,32.35L183.81,269.047z
	 M183.54,110.23l10.728-90.987L261.196,35.6l-28.102,64.09l26.972,44.418l-52.695,69.179l10.553-70.502L183.54,110.23z"/>
<rect x="283.714" y="431.438" width="15.046" height="80.558"/>
<path d="M139.853,449.788H64.804v-70.186H17.503l11.718-107.414l-1.004-1.989c-3.765-7.461-9.605-19.07-11.569-23.059
	c0.429-35.183,14.372-68.157,39.371-93.012c25.211-25.066,58.617-38.841,94.153-38.841c0.262,0,0.528,0,0.79,0.002l0.086-15.046
	c-39.83-0.251-77.379,15.118-105.637,43.214c-28.257,28.095-43.82,65.514-43.82,105.359c0,1.927,0,1.927,6.994,15.849
	c2.016,4.013,4.032,8.015,5.195,10.322L0.725,394.649h49.033v70.186h82.572v47.166h15.046v-47.166h64.04v-15.046h-64.04
	L139.853,449.788L139.853,449.788z"/>
<path d="M339.156,371.984l-120.732-18.073l123.983,94.441l46.848-28.448l95.824,32.361v-114.06H371.135L339.156,371.984z
	 M470.033,353.251v78.051l-82.6-27.894l-44.069,26.759l-69.179-52.695l70.502,10.553l32.923-34.774h92.423V353.251z"/>
<g>
</g>
<g>
</g>
<g>
</g>
<g>
</g>
<g>
</g>
<g>
</g>
<g>
</g>
<g>
</g>
<g>
</g>
<g>
</g>
<g>
</g>
<g>
</g>
<g>
</g>
<g>
</g>
<g>
</g>
</svg>
